<svg id="a09aa2f9-08a3-4eec-a9f5-2c1ba7b260cc" data-name="图层 1" xmlns="http://www.w3.org/2000/svg" viewBox="0 0 247.64 260.27">
  <defs>
    <style>
      .f40da6bb-c66a-47bb-aeb0-e6937833d9ee {
        fill: #fff;
      }
    </style>
  </defs>
  <g>
    <g>
      <g>
        <path class="f40da6bb-c66a-47bb-aeb0-e6937833d9ee" d="M101.62,168.88,88.3,119.15l36.4-36.4,49.72,13.32,13.33,49.73-36.4,36.4ZM214.4,245.25l36.4-36.4-13.33-49.73L187.75,145.8l-36.4,36.4M38.57,105.83,88.3,119.15l36.4-36.4L111.37,33" transform="translate(-14.74 -9.2)"/>
        <path d="M100,170.46,86.72,120.73l-48.65-13,1-3.74,48.65,13,34.82-34.82-13-48.64,3.73-1,13,48.65L176,94.49l13.33,49.73,49.72,13.32L253,209.43l-37.2,37.19L213,243.88l35.61-35.61L235.89,160.7,188.33,148l-36.41,36.4Zm-9.58-50.73L103.2,167.3,150.77,180l34.82-34.82L172.84,97.66,125.28,84.91Z" transform="translate(-14.74 -9.2)"/>
      </g>
      <g>
        <path d="M97.93,172.57,84.61,122.84,37.4,110.19l2.34-8.72L87,114.12,119.66,81.4,107,34.19l8.73-2.33,12.65,47.2,49.72,13.33,13.33,49.72,49.72,13.33,14.67,54.76-38.24,38.24-6.39-6.38,34.56-34.56-12-44.69-44.69-12-36.4,36.4Zm-4.6-52.07,12,44.69,44.69,12,32.71-32.71-12-44.69-44.69-12Z" transform="translate(-14.74 -9.2)"/>
        <path d="M96.35,174.15,83,124.42,35,111.56,38.37,99.1l48,12.86L117.5,80.82l-12.86-48,12.47-3.34,12.86,48,49.72,13.33L193,140.53l49.72,13.33L258,210.78l-40.4,40.4-9.12-9.12,35.13-35.14-11.39-42.53L189.68,153l-36.4,36.4ZM86.19,121.26,99.51,171l52.61,14.1,36.4-36.4,46.85,12.55,12.55,46.85-34,34,3.65,3.65,36.09-36.09L239.58,157l-49.72-13.33L176.53,94,126.81,80.64,114.37,34.23l-5,1.33L121.82,82,87.53,116.27,41.11,103.84l-1.34,5Zm17.54,45.51L91.17,119.92l34.3-34.29,46.85,12.55L184.87,145l-34.29,34.29Zm-8.24-45.69,11.4,42.53L149.42,175l31.13-31.14-11.39-42.53L126.63,90Z" transform="translate(-14.74 -9.2)"/>
      </g>
    </g>
    <g>
      <g>
        <path d="M98.41,172.09,85.09,122.36,37.55,109.63l2-7.6,47.53,12.74,33.19-33.19L107.58,34l7.59-2,12.74,47.53,49.72,13.32L191,142.59l49.72,13.32L255.18,210l-38,38-5.56-5.56,34.79-34.8-12.15-45.34-45.34-12.14-36.4,36.4Zm-5.73-51.76,12.15,45.34,45.34,12.15,33.19-33.19L171.21,99.29,125.87,87.14Z" transform="translate(-14.74 -9.2)"/>
        <path d="M96.83,173.67,83.51,123.94,35.18,111l3-11.33,48.32,13L118.15,81,105.21,32.67l11.33-3,13,48.32,49.72,13.32L192.54,141l49.72,13.32,15.08,56.27-40.16,40.17-8.3-8.3,35.37-35.37-11.57-43.19L189.5,152.34l-36.4,36.41ZM86.67,120.78,100,170.51l52,13.92L188.35,148l47.49,12.72,12.73,47.5-34.22,34.22,2.83,2.82L253,209.45l-13.92-52-49.72-13.32L176.05,94.44,126.33,81.12,113.8,34.38l-3.85,1,12.52,46.74L87.7,116.93,41,104.4l-1,3.86Zm16.58,46.47-12.73-47.5L125.3,85l47.49,12.73,12.73,47.49L150.75,180Zm-8.41-46.34,11.57,43.18,43.18,11.57,31.61-31.61-11.57-43.18L126.45,89.29Z" transform="translate(-14.74 -9.2)"/>
      </g>
      <g>
        <path d="M94.72,175.78,81.4,126.05,32,112.82,36.4,96.5l49.37,13.23,29.51-29.5L102.05,30.85l16.32-4.37L131.6,75.85l49.72,13.33,13.33,49.72,49.72,13.33,15.85,59.15-43,43-12-11.95,36.14-36.15L230.58,166l-40.31-10.8-36.4,36.4Zm3-54.1,10.8,40.3,40.3,10.8,29.51-29.5L167.53,103l-40.31-10.8Z" transform="translate(-14.74 -9.2)"/>
        <path d="M29.65,114.19,35,94.13l50.16,13.44,27.93-27.92L99.68,29.48l20.06-5.37,13.44,50.16L182.9,87.6l13.33,49.72L246,150.65,262.38,212l-45.2,45.21-14.69-14.69,36.73-36.72L229,167.6l-38.15-10.22-36.4,36.4L93.14,177.36,79.82,127.63ZM83,124.47,96.3,174.19l57,15.28,36.41-36.41,42.46,11.38,11.37,42.46L208,242.47l9.21,9.21,40.88-40.88-15.27-57-49.72-13.33L179.74,90.76,130,77.43,117,28.85l-12.58,3.37,13,48.58L86.35,111.89l-48.59-13-3.37,12.58Zm24,39.09L95.56,121.1,126.64,90l42.47,11.38,11.38,42.46L149.4,174.94Zm-7.06-41.31L110.1,160.4l38.14,10.22,27.93-27.92L166,104.55,127.8,94.33Z" transform="translate(-14.74 -9.2)"/>
      </g>
    </g>
  </g>
  <g>
    <g>
      <circle cx="97.02" cy="24.22" r="16.48"/>
      <path d="M98.74,46.43a18.41,18.41,0,1,1,26,0A18.43,18.43,0,0,1,98.74,46.43Zm23.31-23.3a14.55,14.55,0,1,0,0,20.57A14.56,14.56,0,0,0,122.05,23.13Z" transform="translate(-14.74 -9.2)"/>
    </g>
    <g>
      <path d="M96,49.18a22.29,22.29,0,1,1,31.52,0A22.33,22.33,0,0,1,96,49.18Zm23.3-23.31a10.66,10.66,0,1,0,0,15.08A10.67,10.67,0,0,0,119.3,25.87Z" transform="translate(-14.74 -9.2)"/>
      <path d="M94.63,50.54a24.23,24.23,0,1,1,34.26,0A24.24,24.24,0,0,1,94.63,50.54ZM126.16,19a20.36,20.36,0,1,0,0,28.79A20.38,20.38,0,0,0,126.16,19Zm-23.31,23.3a12.6,12.6,0,1,1,17.82,0A12.62,12.62,0,0,1,102.85,42.32Zm15.09-15.08a8.73,8.73,0,1,0,0,12.35A8.75,8.75,0,0,0,117.94,27.24Z" transform="translate(-14.74 -9.2)"/>
    </g>
  </g>
  <g>
    <g>
      <circle cx="38.96" cy="106.22" r="16.48" transform="translate(-78.44 49.46) rotate(-45)"/>
      <path d="M25.94,119.24a18.41,18.41,0,1,1,26,0A18.43,18.43,0,0,1,25.94,119.24Zm23.3-23.31a14.54,14.54,0,1,0,0,20.57A14.55,14.55,0,0,0,49.24,95.93Z" transform="translate(-14.74 -9.2)"/>
    </g>
    <g>
      <path d="M23.2,122a22.29,22.29,0,1,1,31.52,0A22.33,22.33,0,0,1,23.2,122ZM46.5,98.67a10.67,10.67,0,1,0,0,15.09A10.69,10.69,0,0,0,46.5,98.67Z" transform="translate(-14.74 -9.2)"/>
      <path d="M21.83,123.35a24.23,24.23,0,1,1,34.26,0A24.24,24.24,0,0,1,21.83,123.35ZM53.35,91.82a20.35,20.35,0,1,0,0,28.79A20.39,20.39,0,0,0,53.35,91.82Zm-23.3,23.31a12.6,12.6,0,1,1,17.82,0A12.62,12.62,0,0,1,30.05,115.13ZM45.13,100a8.73,8.73,0,1,0,0,12.35A8.74,8.74,0,0,0,45.13,100Z" transform="translate(-14.74 -9.2)"/>
    </g>
  </g>
  <g>
    <g>
      <circle cx="214.4" cy="245.25" r="16.48" transform="translate(-125.37 214.24) rotate(-45)"/>
      <path d="M201.37,258.27a18.42,18.42,0,1,1,26,0A18.44,18.44,0,0,1,201.37,258.27ZM224.68,235a14.54,14.54,0,1,0,0,20.56A14.56,14.56,0,0,0,224.68,235Z" transform="translate(-14.74 -9.2)"/>
    </g>
    <g>
      <path d="M198.63,261a22.29,22.29,0,1,1,31.53,0A22.31,22.31,0,0,1,198.63,261Zm23.31-23.3a10.67,10.67,0,1,0,0,15.08A10.68,10.68,0,0,0,221.94,237.71Z" transform="translate(-14.74 -9.2)"/>
      <path d="M197.26,262.38a24.23,24.23,0,1,1,34.27,0A24.25,24.25,0,0,1,197.26,262.38Zm31.53-31.52a20.35,20.35,0,1,0,0,28.78A20.38,20.38,0,0,0,228.79,230.86Zm-23.3,23.3a12.6,12.6,0,1,1,17.82,0A12.6,12.6,0,0,1,205.49,254.16Zm15.08-15.08a8.73,8.73,0,1,0,0,12.34A8.73,8.73,0,0,0,220.57,239.08Z" transform="translate(-14.74 -9.2)"/>
    </g>
  </g>
</svg>
